<svg data-v-423bf9ae="" xmlns="http://www.w3.org/2000/svg" viewBox="0 0 226 90" class="iconLeft"><!----><defs data-v-423bf9ae=""><linearGradient data-v-423bf9ae="" gradientTransform="rotate(25)" id="c4a3b5eb-6f51-45c1-91d4-9e5a75d11bba" x1="0%" y1="0%" x2="100%" y2="0%"><stop data-v-423bf9ae="" offset="0%" style="stop-color: rgb(4, 24, 4); stop-opacity: 1;"></stop><stop data-v-423bf9ae="" offset="100%" style="stop-opacity: 1;"></stop></linearGradient></defs><!----><g data-v-423bf9ae="" id="b8cd127b-c211-4cf0-98e6-04e8342a7e9b" fill="#ffffff" transform="matrix(5.464480400085449,0,0,5.464480400085449,103.49726104736328,-2.26775860786438)"><path d="M1.19 5.84L1.19 13.97L1.53 13.97L1.53 8.19C1.53 6.82 2.39 6.01 3.61 6.01C3.79 6.01 3.92 6.02 4.03 6.03L4.03 5.70C3.93 5.68 3.75 5.67 3.61 5.67C2.58 5.67 1.86 6.30 1.55 6.93L1.50 5.84ZM5.84 5.84L5.50 5.84L5.50 13.97L5.84 13.97ZM5.49 3.82L5.85 3.82L5.85 3.16L5.49 3.16ZM8.55 5.84L8.22 5.84L8.22 13.97L8.55 13.97ZM8.20 3.82L8.57 3.82L8.57 3.16L8.20 3.16ZM10.65 11.09C10.65 13.05 11.35 14.14 13.02 14.14C14.07 14.14 14.80 13.66 15.18 12.98L15.23 13.97L15.54 13.97L15.54 3.16L15.20 3.16L15.20 6.87C14.88 6.16 14.17 5.67 13.12 5.67C11.73 5.67 10.65 6.38 10.65 8.69ZM10.99 8.74C10.99 6.68 11.84 5.98 13.12 5.98C14.27 5.98 15.20 6.58 15.20 8.34L15.20 11.73C15.20 13.08 14.31 13.83 13.06 13.83C11.61 13.83 10.99 12.89 10.99 11.12ZM21.99 11.97C21.98 13.19 21.48 13.83 20.08 13.83C18.48 13.83 17.98 12.98 17.98 11.12L17.98 9.86L22.40 9.86L22.40 8.60C22.40 6.58 21.73 5.67 20.05 5.67C18.44 5.67 17.64 6.45 17.64 8.74L17.64 11.16C17.64 13.36 18.37 14.14 20.08 14.14C21.60 14.14 22.33 13.44 22.33 11.97ZM17.98 9.55L17.98 8.72C17.98 6.76 18.48 5.98 20.05 5.98C21.66 5.98 22.06 6.89 22.06 8.64L22.06 9.55Z"></path></g><!----><g data-v-423bf9ae="" id="84f338df-af57-4a91-9bd0-a8e2b1be9fa9" transform="matrix(1.2430940866470337,0,0,1.2430940866470337,-16.354700088500977,-16.354700088500977)" stroke="none" fill="#ffffff"><path d="M67.5 86.2V72.5h-35v13.7h-5V72.5H13.8v-5h13.7v-15H13.8v-5h13.7v-15H13.8v-5h13.7V13.8h5v13.7h35V13.8h5v13.7h13.7v5H72.5v15h13.7v5H72.5v15h13.7v5H72.5v13.7h-5zm-35-18.7h35v-15h-35v15zm0-20h35v-15h-35v15z"></path></g><!----></svg>